{
	"asset":{
		"generator":"Khronos glTF Blender I/O v3.6.27",
		"version":"2.0"
	},
	"extensionsUsed":[
		"KHR_materials_emissive_strength"
	],
	"scene":0,
	"scenes":[
		{
			"name":"Scene",
			"nodes":[
				0,
				1,
				2,
				3,
				4,
				5,
				6,
				7
			]
		}
	],
	"nodes":[
		{
			"mesh":0,
			"name":"Main frame",
			"rotation":[
				0.5794952511787415,
				-0.40519794821739197,
				0.5794950723648071,
				0.40519794821739197
			],
			"scale":[
				1.0208566188812256,
				1.020856499671936,
				1.020856499671936
			],
			"translation":[
				-2.995850086212158,
				-0.24227593839168549,
				0.01285804808139801
			]
		},
		{
			"mesh":1,
			"name":"Speaker holder",
			"rotation":[
				0.5794952511787415,
				-0.4051979184150696,
				0.5794950723648071,
				0.4051979184150696
			],
			"scale":[
				1.0188703536987305,
				1.018870234489441,
				1.018870234489441
			],
			"translation":[
				-2.841902017593384,
				-0.18826012313365936,
				0.012330599129199982
			]
		},
		{
			"mesh":2,
			"name":"Grill",
			"rotation":[
				0.5787966251373291,
				0.40619519352912903,
				-0.5787965059280396,
				0.40619519352912903
			],
			"scale":[
				0.16585460305213928,
				0.1658545881509781,
				0.1658545881509781
			],
			"translation":[
				2.783686637878418,
				-0.15561139583587646,
				-0.0033628642559051514
			]
		},
		{
			"mesh":3,
			"name":"Buds support",
			"rotation":[
				0.5787966251373291,
				0.4061952233314514,
				-0.5787965059280396,
				0.4061952233314514
			],
			"translation":[
				2.7132701873779297,
				-0.1166890412569046,
				0.009297169744968414
			]
		},
		{
			"mesh":4,
			"name":"Buds",
			"rotation":[
				0.5787966847419739,
				0.4061952233314514,
				-0.5787965655326843,
				0.4061952233314514
			],
			"scale":[
				0.9979605674743652,
				0.9979605674743652,
				0.9979605674743652
			],
			"translation":[
				2.21109676361084,
				0.06487917900085449,
				0.009297192096710205
			]
		},
		{
			"mesh":5,
			"name":"Logo",
			"rotation":[
				0.5787966847419739,
				0.40619510412216187,
				-0.5787965655326843,
				0.40619510412216187
			],
			"translation":[
				2.992457389831543,
				-0.2176331728696823,
				0.009297147393226624
			]
		},
		{
			"mesh":6,
			"name":"Metal Support",
			"rotation":[
				0.6914380192756653,
				0,
				0,
				0.7224358320236206
			],
			"translation":[
				0.03020310401916504,
				2.404780149459839,
				-0.2833627462387085
			]
		},
		{
			"mesh":7,
			"name":"Speacker cover and head band",
			"rotation":[
				0.6731690764427185,
				0,
				0,
				0.7394886016845703
			],
			"scale":[
				0.8668071031570435,
				0.8668071031570435,
				0.8668071031570435
			],
			"translation":[
				0.03020310401916504,
				2.322197675704956,
				-0.09103576093912125
			]
		}
	],
	"materials":[
		{
			"doubleSided":true,
			"name":"Material.006",
			"pbrMetallicRoughness":{
				"baseColorTexture":{
					"index":0
				},
				"metallicFactor":0,
				"roughnessFactor":0.5
			}
		},
		{
			"doubleSided":true,
			"name":"Material.007",
			"pbrMetallicRoughness":{
				"baseColorTexture":{
					"index":1
				},
				"metallicFactor":0,
				"roughnessFactor":0.5
			}
		},
		{
			"doubleSided":true,
			"name":"Material.004",
			"pbrMetallicRoughness":{
				"baseColorTexture":{
					"index":2
				},
				"metallicFactor":0,
				"roughnessFactor":0.5
			}
		},
		{
			"doubleSided":true,
			"name":"Material.005",
			"pbrMetallicRoughness":{
				"baseColorTexture":{
					"index":3
				},
				"metallicFactor":0.26818183064460754,
				"roughnessFactor":0.5
			}
		},
		{
			"doubleSided":true,
			"name":"Material.003",
			"pbrMetallicRoughness":{
				"baseColorTexture":{
					"index":4
				},
				"metallicFactor":0,
				"roughnessFactor":0.5
			}
		},
		{
			"doubleSided":true,
			"emissiveFactor":[
				1,
				1,
				1
			],
			"emissiveTexture":{
				"index":5
			},
			"extensions":{
				"KHR_materials_emissive_strength":{
					"emissiveStrength":10
				}
			},
			"name":"Material.008",
			"pbrMetallicRoughness":{
				"baseColorFactor":[
					0,
					0,
					0,
					1
				]
			}
		},
		{
			"doubleSided":true,
			"name":"Material.001",
			"pbrMetallicRoughness":{
				"baseColorFactor":[
					0.0791533961892128,
					0.0027875853702425957,
					0,
					1
				],
				"metallicFactor":0
			}
		},
		{
			"doubleSided":true,
			"name":"Material.002",
			"pbrMetallicRoughness":{
				"baseColorTexture":{
					"index":6
				},
				"metallicFactor":0,
				"roughnessFactor":0.5
			}
		}
	],
	"meshes":[
		{
			"name":"Circle",
			"primitives":[
				{
					"attributes":{
						"POSITION":0,
						"NORMAL":1,
						"TEXCOORD_0":2
					},
					"indices":3,
					"material":0
				}
			]
		},
		{
			"name":"Circle.001",
			"primitives":[
				{
					"attributes":{
						"POSITION":4,
						"NORMAL":5,
						"TEXCOORD_0":6
					},
					"indices":7,
					"material":1
				}
			]
		},
		{
			"name":"HoneyComb.002",
			"primitives":[
				{
					"attributes":{
						"POSITION":8,
						"NORMAL":9,
						"TEXCOORD_0":10
					},
					"indices":11,
					"material":2
				}
			]
		},
		{
			"name":"Circle.014",
			"primitives":[
				{
					"attributes":{
						"POSITION":12,
						"NORMAL":13,
						"TEXCOORD_0":14
					},
					"indices":15,
					"material":3
				}
			]
		},
		{
			"name":"Torus.005",
			"primitives":[
				{
					"attributes":{
						"POSITION":16,
						"NORMAL":17,
						"TEXCOORD_0":18
					},
					"indices":19,
					"material":4
				}
			]
		},
		{
			"name":"Circle.016",
			"primitives":[
				{
					"attributes":{
						"POSITION":20,
						"NORMAL":21,
						"TEXCOORD_0":22
					},
					"indices":23,
					"material":5
				}
			]
		},
		{
			"name":"Circle.017",
			"primitives":[
				{
					"attributes":{
						"POSITION":24,
						"NORMAL":25,
						"TEXCOORD_0":26
					},
					"indices":27,
					"material":6
				}
			]
		},
		{
			"name":"Circle.018",
			"primitives":[
				{
					"attributes":{
						"POSITION":28,
						"NORMAL":29,
						"TEXCOORD_0":30
					},
					"indices":31,
					"material":7
				}
			]
		}
	],
	"textures":[
		{
			"sampler":0,
			"source":0
		},
		{
			"sampler":0,
			"source":1
		},
		{
			"sampler":0,
			"source":2
		},
		{
			"sampler":0,
			"source":3
		},
		{
			"sampler":0,
			"source":4
		},
		{
			"sampler":0,
			"source":5
		},
		{
			"sampler":0,
			"source":6
		}
	],
	"images":[
		{
			"mimeType":"image/png",
			"name":"Main frame",
			"uri":"Main%20frame.png"
		},
		{
			"mimeType":"image/png",
			"name":"Speaker holder",
			"uri":"Speaker%20holder.png"
		},
		{
			"mimeType":"image/png",
			"name":"Grill",
			"uri":"Grill.png"
		},
		{
			"mimeType":"image/png",
			"name":"Buds Support",
			"uri":"Buds%20Support.png"
		},
		{
			"mimeType":"image/png",
			"name":"Buds",
			"uri":"Buds.png"
		},
		{
			"mimeType":"image/png",
			"name":"bloody logo",
			"uri":"bloody%20logo.png"
		},
		{
			"mimeType":"image/png",
			"name":"Cover and headband",
			"uri":"Cover%20and%20headband.png"
		}
	],
	"accessors":[
		{
			"bufferView":0,
			"componentType":5126,
			"count":17332,
			"max":[
				1.287099838256836,
				0.046983517706394196,
				2.7192018032073975
			],
			"min":[
				-1.921858787536621,
				-6.893714904785156,
				-2.305274724960327
			],
			"type":"VEC3"
		},
		{
			"bufferView":1,
			"componentType":5126,
			"count":17332,
			"type":"VEC3"
		},
		{
			"bufferView":2,
			"componentType":5126,
			"count":17332,
			"type":"VEC2"
		},
		{
			"bufferView":3,
			"componentType":5123,
			"count":84216,
			"type":"SCALAR"
		},
		{
			"bufferView":4,
			"componentType":5126,
			"count":5504,
			"max":[
				0.9935951232910156,
				0.1705113649368286,
				2.79233717918396
			],
			"min":[
				-1.0089974403381348,
				-6.033127784729004,
				-0.9935951232910156
			],
			"type":"VEC3"
		},
		{
			"bufferView":5,
			"componentType":5126,
			"count":5504,
			"type":"VEC3"
		},
		{
			"bufferView":6,
			"componentType":5126,
			"count":5504,
			"type":"VEC2"
		},
		{
			"bufferView":7,
			"componentType":5123,
			"count":32256,
			"type":"SCALAR"
		},
		{
			"bufferView":8,
			"componentType":5126,
			"count":133340,
			"max":[
				5.989602088928223,
				1.99504816532135,
				16.93877601623535
			],
			"min":[
				-6.084227085113525,
				-36.46319580078125,
				-6.070207595825195
			],
			"type":"VEC3"
		},
		{
			"bufferView":9,
			"componentType":5126,
			"count":133340,
			"type":"VEC3"
		},
		{
			"bufferView":10,
			"componentType":5126,
			"count":133340,
			"type":"VEC2"
		},
		{
			"bufferView":11,
			"componentType":5125,
			"count":187524,
			"type":"SCALAR"
		},
		{
			"bufferView":12,
			"componentType":5126,
			"count":9232,
			"max":[
				1.6475639343261719,
				0,
				3.0135068893432617
			],
			"min":[
				-1.6379374265670776,
				-6.083552360534668,
				-2.1257786750793457
			],
			"type":"VEC3"
		},
		{
			"bufferView":13,
			"componentType":5126,
			"count":9232,
			"type":"VEC3"
		},
		{
			"bufferView":14,
			"componentType":5126,
			"count":9232,
			"type":"VEC2"
		},
		{
			"bufferView":15,
			"componentType":5123,
			"count":53616,
			"type":"SCALAR"
		},
		{
			"bufferView":16,
			"componentType":5126,
			"count":11343,
			"max":[
				1.629645824432373,
				0.0326385498046875,
				2.743910312652588
			],
			"min":[
				-1.619999885559082,
				-5.191075801849365,
				-1.619999885559082
			],
			"type":"VEC3"
		},
		{
			"bufferView":17,
			"componentType":5126,
			"count":11343,
			"type":"VEC3"
		},
		{
			"bufferView":18,
			"componentType":5126,
			"count":11343,
			"type":"VEC2"
		},
		{
			"bufferView":19,
			"componentType":5123,
			"count":62208,
			"type":"SCALAR"
		},
		{
			"bufferView":20,
			"componentType":5126,
			"count":162,
			"max":[
				1.0096262693405151,
				0,
				2.7925963401794434
			],
			"min":[
				-1,
				-6.24198055267334,
				-1
			],
			"type":"VEC3"
		},
		{
			"bufferView":21,
			"componentType":5126,
			"count":162,
			"type":"VEC3"
		},
		{
			"bufferView":22,
			"componentType":5126,
			"count":162,
			"type":"VEC2"
		},
		{
			"bufferView":23,
			"componentType":5123,
			"count":768,
			"type":"SCALAR"
		},
		{
			"bufferView":24,
			"componentType":5126,
			"count":3284,
			"max":[
				3.4922730922698975,
				1.0985682010650635,
				0.7163291573524475
			],
			"min":[
				-3.4915385246276855,
				-0.20330354571342468,
				-3.490971326828003
			],
			"type":"VEC3"
		},
		{
			"bufferView":25,
			"componentType":5126,
			"count":3284,
			"type":"VEC3"
		},
		{
			"bufferView":26,
			"componentType":5126,
			"count":3284,
			"type":"VEC2"
		},
		{
			"bufferView":27,
			"componentType":5123,
			"count":17952,
			"type":"SCALAR"
		},
		{
			"bufferView":28,
			"componentType":5126,
			"count":2927,
			"max":[
				3.585097312927246,
				1.0204429626464844,
				3.6777381896972656
			],
			"min":[
				-3.585099458694458,
				-1.2876238822937012,
				-3.141559600830078
			],
			"type":"VEC3"
		},
		{
			"bufferView":29,
			"componentType":5126,
			"count":2927,
			"type":"VEC3"
		},
		{
			"bufferView":30,
			"componentType":5126,
			"count":2927,
			"type":"VEC2"
		},
		{
			"bufferView":31,
			"componentType":5123,
			"count":16224,
			"type":"SCALAR"
		}
	],
	"bufferViews":[
		{
			"buffer":0,
			"byteLength":207984,
			"byteOffset":0,
			"target":34962
		},
		{
			"buffer":0,
			"byteLength":207984,
			"byteOffset":207984,
			"target":34962
		},
		{
			"buffer":0,
			"byteLength":138656,
			"byteOffset":415968,
			"target":34962
		},
		{
			"buffer":0,
			"byteLength":168432,
			"byteOffset":554624,
			"target":34963
		},
		{
			"buffer":0,
			"byteLength":66048,
			"byteOffset":723056,
			"target":34962
		},
		{
			"buffer":0,
			"byteLength":66048,
			"byteOffset":789104,
			"target":34962
		},
		{
			"buffer":0,
			"byteLength":44032,
			"byteOffset":855152,
			"target":34962
		},
		{
			"buffer":0,
			"byteLength":64512,
			"byteOffset":899184,
			"target":34963
		},
		{
			"buffer":0,
			"byteLength":1600080,
			"byteOffset":963696,
			"target":34962
		},
		{
			"buffer":0,
			"byteLength":1600080,
			"byteOffset":2563776,
			"target":34962
		},
		{
			"buffer":0,
			"byteLength":1066720,
			"byteOffset":4163856,
			"target":34962
		},
		{
			"buffer":0,
			"byteLength":750096,
			"byteOffset":5230576,
			"target":34963
		},
		{
			"buffer":0,
			"byteLength":110784,
			"byteOffset":5980672,
			"target":34962
		},
		{
			"buffer":0,
			"byteLength":110784,
			"byteOffset":6091456,
			"target":34962
		},
		{
			"buffer":0,
			"byteLength":73856,
			"byteOffset":6202240,
			"target":34962
		},
		{
			"buffer":0,
			"byteLength":107232,
			"byteOffset":6276096,
			"target":34963
		},
		{
			"buffer":0,
			"byteLength":136116,
			"byteOffset":6383328,
			"target":34962
		},
		{
			"buffer":0,
			"byteLength":136116,
			"byteOffset":6519444,
			"target":34962
		},
		{
			"buffer":0,
			"byteLength":90744,
			"byteOffset":6655560,
			"target":34962
		},
		{
			"buffer":0,
			"byteLength":124416,
			"byteOffset":6746304,
			"target":34963
		},
		{
			"buffer":0,
			"byteLength":1944,
			"byteOffset":6870720,
			"target":34962
		},
		{
			"buffer":0,
			"byteLength":1944,
			"byteOffset":6872664,
			"target":34962
		},
		{
			"buffer":0,
			"byteLength":1296,
			"byteOffset":6874608,
			"target":34962
		},
		{
			"buffer":0,
			"byteLength":1536,
			"byteOffset":6875904,
			"target":34963
		},
		{
			"buffer":0,
			"byteLength":39408,
			"byteOffset":6877440,
			"target":34962
		},
		{
			"buffer":0,
			"byteLength":39408,
			"byteOffset":6916848,
			"target":34962
		},
		{
			"buffer":0,
			"byteLength":26272,
			"byteOffset":6956256,
			"target":34962
		},
		{
			"buffer":0,
			"byteLength":35904,
			"byteOffset":6982528,
			"target":34963
		},
		{
			"buffer":0,
			"byteLength":35124,
			"byteOffset":7018432,
			"target":34962
		},
		{
			"buffer":0,
			"byteLength":35124,
			"byteOffset":7053556,
			"target":34962
		},
		{
			"buffer":0,
			"byteLength":23416,
			"byteOffset":7088680,
			"target":34962
		},
		{
			"buffer":0,
			"byteLength":32448,
			"byteOffset":7112096,
			"target":34963
		}
	],
	"samplers":[
		{
			"magFilter":9729,
			"minFilter":9987
		}
	],
	"buffers":[
		{
			"byteLength":7144544,
			"uri":"audifonosV3.bin"
		}
	]
}
